# xmcd CD database file
#
# Track frame offsets:
#	150
#	3512
#	19320
#	38277
#	55142
#	74375
#	82117
#	101627
#	122055
#	137760
#
# Disc length: 2088 seconds
#
# Revision: 0
# Processed by: cddbd v1.5.1PL0 Copyright (c) Steve Scherf et al.
# Submitted via: CDex 1.51
#
DISCID=8008260a
DTITLE=PARADICE LOST - PARADICE LOST
DYEAR=1900
DGENRE=Pop
TTITLE0=NET JUNKEY(reprise)
TTITLE1=Nothing Will
TTITLE2=ニュートラル
TTITLE3=FOOL
TTITLE4=３６℃
TTITLE5=NET JUNKEY
TTITLE6=フェンス
TTITLE7=YOURS EVER
TTITLE8=things
TTITLE9=BED
EXTD=
EXTT0=
EXTT1=
EXTT2=
EXTT3=
EXTT4=
EXTT5=
EXTT6=
EXTT7=
EXTT8=
EXTT9=
PLAYORDER=
